<?xml version="1.0" encoding="utf-8"?>
<!-- Generator: Adobe Illustrator 16.2.0, SVG Export Plug-In . SVG Version: 6.00 Build 0)  -->
<!DOCTYPE svg PUBLIC "-//W3C//DTD SVG 1.1//EN" "http://www.w3.org/Graphics/SVG/1.1/DTD/svg11.dtd">
<svg version="1.1" id="Layer_1" xmlns="http://www.w3.org/2000/svg" xmlns:xlink="http://www.w3.org/1999/xlink" x="0px" y="0px"
	 width="612px" height="792px" viewBox="0 0 612 792" enable-background="new 0 0 612 792" xml:space="preserve">
<g>
	<defs>
		<rect id="SVGID_1_" x="0" y="90" width="612" height="612.001"/>
	</defs>
	<clipPath id="SVGID_2_">
		<use xlink:href="#SVGID_1_"  overflow="visible"/>
	</clipPath>
	<g clip-path="url(#SVGID_2_)">
		<path fill-opacity="0" d="M0,90h612v612.001H0V90z"/>
		<path fill="#FFFFFF" d="M-10.552,90h612v611.945h-612V90z"/>
		<path fill-opacity="0" d="M8.932,100.158h592.502V693.99H8.932V100.158z"/>
		<path fill="none" stroke="#000000" stroke-width="2" stroke-linejoin="round" stroke-miterlimit="10" d="M8.932,100.158h592.502
			V693.99H8.932V100.158z"/>
		<path fill="#FFFFFF" d="M497.223,161.319L497.223,161.319c0-14.729,12.25-26.67,27.362-26.67l0,0
			c7.257,0,14.217,2.81,19.348,7.812c5.132,5.001,8.015,11.785,8.015,18.858l0,0c0,14.729-12.251,26.67-27.362,26.67l0,0
			C509.473,187.989,497.223,176.049,497.223,161.319z"/>
		<path fill="none" stroke="#000000" stroke-width="2" stroke-linejoin="round" stroke-miterlimit="10" d="M497.223,161.319
			L497.223,161.319c0-14.729,12.25-26.67,27.362-26.67l0,0c7.257,0,14.217,2.81,19.348,7.812c5.132,5.001,8.015,11.785,8.015,18.858
			l0,0c0,14.729-12.251,26.67-27.362,26.67l0,0C509.473,187.989,497.223,176.049,497.223,161.319z"/>
	</g>
</g>
<rect x="84.5" y="176.5" width="331" height="140"/>
<g>
	<path fill="#FFFFFF" d="M124.996,246.476v-3.938l22.758-9.609v4.195l-18.047,7.406l18.047,7.477v4.195L124.996,246.476z"/>
	<path fill="#FFFFFF" d="M154.106,261.5V227.14h11.836c2.672,0,4.711,0.164,6.117,0.492c1.969,0.453,3.648,1.273,5.039,2.461
		c1.813,1.531,3.168,3.488,4.066,5.871s1.348,5.105,1.348,8.168c0,2.609-0.305,4.922-0.914,6.938s-1.391,3.684-2.344,5.004
		s-1.996,2.359-3.129,3.117s-2.5,1.332-4.102,1.723s-3.441,0.586-5.52,0.586H154.106z M158.653,257.445h7.336
		c2.266,0,4.043-0.211,5.332-0.633s2.316-1.016,3.082-1.781c1.078-1.078,1.918-2.527,2.52-4.348s0.902-4.027,0.902-6.621
		c0-3.594-0.59-6.355-1.77-8.285s-2.613-3.223-4.301-3.879c-1.219-0.469-3.18-0.703-5.883-0.703h-7.219V257.445z"/>
	<path fill="#FFFFFF" d="M189.543,261.5V227.14h4.547V261.5H189.543z"/>
	<path fill="#FFFFFF" d="M200.559,250.461l4.289-0.375c0.203,1.719,0.676,3.129,1.418,4.23s1.895,1.992,3.457,2.672
		s3.32,1.02,5.273,1.02c1.734,0,3.266-0.258,4.594-0.773s2.316-1.223,2.965-2.121s0.973-1.879,0.973-2.941
		c0-1.078-0.313-2.02-0.938-2.824s-1.656-1.48-3.094-2.027c-0.922-0.359-2.961-0.918-6.117-1.676s-5.367-1.473-6.633-2.145
		c-1.641-0.859-2.863-1.926-3.668-3.199s-1.207-2.699-1.207-4.277c0-1.734,0.492-3.355,1.477-4.863s2.422-2.652,4.313-3.434
		s3.992-1.172,6.305-1.172c2.547,0,4.793,0.41,6.738,1.23s3.441,2.027,4.488,3.621s1.609,3.398,1.688,5.414l-4.359,0.328
		c-0.234-2.172-1.027-3.813-2.379-4.922s-3.348-1.664-5.988-1.664c-2.75,0-4.754,0.504-6.012,1.512s-1.887,2.223-1.887,3.645
		c0,1.234,0.445,2.25,1.336,3.047c0.875,0.797,3.16,1.613,6.855,2.449s6.23,1.566,7.605,2.191c2,0.922,3.477,2.09,4.43,3.504
		s1.43,3.043,1.43,4.887c0,1.828-0.523,3.551-1.57,5.168s-2.551,2.875-4.512,3.773s-4.168,1.348-6.621,1.348
		c-3.109,0-5.715-0.453-7.816-1.359s-3.75-2.27-4.945-4.09S200.621,252.758,200.559,250.461z"/>
	<path fill="#FFFFFF" d="M234.121,261.5V227.14h12.961c2.281,0,4.023,0.109,5.227,0.328c1.688,0.281,3.102,0.816,4.242,1.605
		s2.059,1.895,2.754,3.316s1.043,2.984,1.043,4.688c0,2.922-0.93,5.395-2.789,7.418s-5.219,3.035-10.078,3.035h-8.813V261.5H234.121
		z M238.668,243.476h8.883c2.938,0,5.023-0.547,6.258-1.641s1.852-2.633,1.852-4.617c0-1.438-0.363-2.668-1.09-3.691
		s-1.684-1.699-2.871-2.027c-0.766-0.203-2.18-0.305-4.242-0.305h-8.789V243.476z"/>
	<path fill="#FFFFFF" d="M265.949,261.5V227.14h4.547v30.305h16.922v4.055H265.949z"/>
	<path fill="#FFFFFF" d="M289.059,261.5l13.195-34.359h4.898l14.063,34.359h-5.18l-4.008-10.406H297.66l-3.773,10.406H289.059z
		 M298.973,247.39h11.648l-3.586-9.516c-1.094-2.891-1.906-5.266-2.438-7.125c-0.438,2.203-1.055,4.391-1.852,6.563L298.973,247.39z
		"/>
	<path fill="#FFFFFF" d="M330.965,261.5v-14.555l-13.242-19.805h5.531l6.773,10.359c1.25,1.938,2.414,3.875,3.492,5.813
		c1.031-1.797,2.281-3.82,3.75-6.07l6.656-10.102h5.297l-13.711,19.805V261.5H330.965z"/>
	<path fill="#FFFFFF" d="M374.981,246.476l-22.758,9.727v-4.195l18.023-7.477l-18.023-7.406v-4.195l22.758,9.609V246.476z"/>
</g>
<rect x="31.5" y="348.5" fill="none" stroke="#231F20" stroke-width="2" stroke-miterlimit="10" width="266" height="266"/>
<rect x="314.5" y="348.5" fill="none" stroke="#231F20" stroke-width="2" stroke-miterlimit="10" width="266" height="266"/>
<g>
	<path d="M129.86,495.5v-14.555l-13.242-19.805h5.531l6.773,10.359c1.25,1.938,2.414,3.875,3.492,5.813
		c1.031-1.797,2.281-3.82,3.75-6.07l6.656-10.102h5.297l-13.711,19.805V495.5H129.86z"/>
	<path d="M152.289,495.5V461.14h24.844v4.055h-20.297v10.523h19.008v4.031h-19.008v11.695h21.094v4.055H152.289z"/>
	<path d="M182.664,484.461l4.289-0.375c0.203,1.719,0.676,3.129,1.418,4.23s1.895,1.992,3.457,2.672s3.32,1.02,5.273,1.02
		c1.734,0,3.266-0.258,4.594-0.773s2.316-1.223,2.965-2.121s0.973-1.879,0.973-2.941c0-1.078-0.313-2.02-0.938-2.824
		s-1.656-1.48-3.094-2.027c-0.922-0.359-2.961-0.918-6.117-1.676s-5.367-1.473-6.633-2.145c-1.641-0.859-2.863-1.926-3.668-3.199
		s-1.207-2.699-1.207-4.277c0-1.734,0.492-3.355,1.477-4.863s2.422-2.652,4.313-3.434s3.992-1.172,6.305-1.172
		c2.547,0,4.793,0.41,6.738,1.23s3.441,2.027,4.488,3.621s1.609,3.398,1.688,5.414l-4.359,0.328
		c-0.234-2.172-1.027-3.813-2.379-4.922s-3.348-1.664-5.988-1.664c-2.75,0-4.754,0.504-6.012,1.512s-1.887,2.223-1.887,3.645
		c0,1.234,0.445,2.25,1.336,3.047c0.875,0.797,3.16,1.613,6.855,2.449s6.23,1.566,7.605,2.191c2,0.922,3.477,2.09,4.43,3.504
		s1.43,3.043,1.43,4.887c0,1.828-0.523,3.551-1.57,5.168s-2.551,2.875-4.512,3.773s-4.168,1.348-6.621,1.348
		c-3.109,0-5.715-0.453-7.816-1.359s-3.75-2.27-4.945-4.09S182.727,486.758,182.664,484.461z"/>
</g>
<g>
	<path d="M415.156,495.5V461.14h4.664l18.047,26.977V461.14h4.359V495.5h-4.664l-18.047-27v27H415.156z"/>
	<path d="M448.485,478.765c0-5.703,1.531-10.168,4.594-13.395s7.016-4.84,11.859-4.84c3.172,0,6.031,0.758,8.578,2.273
		s4.488,3.629,5.824,6.34s2.004,5.785,2.004,9.223c0,3.484-0.703,6.602-2.109,9.352s-3.398,4.832-5.977,6.246
		s-5.359,2.121-8.344,2.121c-3.234,0-6.125-0.781-8.672-2.344s-4.477-3.695-5.789-6.398S448.485,481.781,448.485,478.765z
		 M453.172,478.836c0,4.141,1.113,7.402,3.34,9.785s5.02,3.574,8.379,3.574c3.422,0,6.238-1.203,8.449-3.609
		s3.316-5.82,3.316-10.242c0-2.797-0.473-5.238-1.418-7.324s-2.328-3.703-4.148-4.852s-3.863-1.723-6.129-1.723
		c-3.219,0-5.988,1.105-8.309,3.316S453.172,473.664,453.172,478.836z"/>
</g>
</svg>
